<svg width="24" height="24" viewBox="0 0 24 24" fill="none" xmlns="http://www.w3.org/2000/svg">
<path d="M19.35 11.72L17.22 13.85L15.81 12.43L8.1 20.14L3.5 22L2 20.5L3.86 15.9L11.57 8.19L10.15 6.78L12.28 4.65L19.35 11.72ZM16.76 3C17.3225 2.4382 18.085 2.12264 18.88 2.12264C19.675 2.12264 20.4375 2.4382 21 3C21.5618 3.5625 21.8774 4.325 21.8774 5.12C21.8774 5.915 21.5618 6.6775 21 7.24L19.08 9.16L14.84 4.92L16.76 3ZM5.56 17.03L4.5 19.5L6.97 18.44L14.4 11L13 9.6L5.56 17.03Z" fill="black"/>
</svg>
