<svg width="24" height="24" viewBox="0 0 24 24" fill="none" xmlns="http://www.w3.org/2000/svg">
<g clip-path="url(#clip0_1_4)">
<path d="M20.25 3.6C19.65 3 18.75 2.85 18 3.15C18 2.7 17.85 2.25 17.4 1.8C17.1 1.5 16.5 1.2 15.75 1.2C15.3 1.2 15 1.35 14.7 1.35C14.7 1.05 14.55 0.9 14.4 0.6C13.65 -0.3 12.15 -0.3 11.4 0.6C11.1 0.9 10.8 1.2 10.8 1.5C10.5 1.5 10.2 1.35 9.9 1.35C9.15 1.35 8.7 1.65 8.25 2.1C7.5 2.85 7.5 4.05 7.5 4.05V9.75C7.05 9.3 6.3 8.55 5.25 8.55C4.95 8.55 4.5 8.7 4.2 8.85C3.6 9.15 3.3 9.6 3.15 10.2C2.7 11.7 4.05 13.8 4.05 13.95C4.2 14.1 5.85 18 7.35 19.65C8.85 21.45 10.5 22.5 14.7 22.5C19.05 22.5 21 20.1 21 14.85V6.6C21 6.45 21.15 4.65 20.25 3.6ZM12 3C12 2.55 11.85 1.5 12.75 1.5C13.5 1.5 13.5 2.25 13.5 3V9C13.5 9.45 13.8 9.75 14.25 9.75C14.7 9.75 15 9.45 15 9V3.3C15 3.3 15 2.7 15.75 2.7C16.65 2.7 16.5 4.05 16.5 4.05V9C16.5 9.45 16.8 9.75 17.25 9.75C17.7 9.75 18 9.45 18 9V5.4C18 5.25 18 4.5 18.75 4.5C19.5 4.5 19.5 6 19.5 6V14.85C19.5 19.95 17.55 21 14.7 21C11.1 21 9.75 20.25 8.55 18.6C7.2 17.1 5.4 13.2 5.4 13.05C4.95 12.6 4.35 11.25 4.5 10.65C4.5 10.5 4.65 10.35 4.8 10.2C4.95 10.2 5.1 10.05 5.1 10.05C5.7 10.05 6.3 10.8 6.45 11.1L7.35 12.45C7.5 12.75 7.95 12.9 8.25 12.75C8.85 12.75 9 12.45 9 12.15V4.35C9 3.75 9 2.85 9.75 2.85C10.35 2.85 10.5 3.3 10.5 4.05V9C10.5 9.45 10.8 9.75 11.25 9.75C11.7 9.75 12 9.45 12 9V3Z" fill="black"/>
</g>
<defs>
<clipPath id="clip0_1_4">
<rect width="24" height="24" fill="white"/>
</clipPath>
</defs>
</svg>
